<?xml version="1.0" encoding="utf-8"?>
<svg width="800" height="800" viewBox="0 0 800 800" fill="none" xmlns="http://www.w3.org/2000/svg">
  <g>
    <path d="M317.147 4.1947C327.213 -1.39823 339.453 -1.39823 349.52 4.1947C349.52 4.1947 649.483 170.841 649.483 170.841C649.737 170.981 649.987 171.124 650.237 171.271C660.417 177.26 666.667 188.189 666.667 200C666.667 200 666.667 533.333 666.667 533.333C666.667 545.44 660.103 556.593 649.52 562.473C649.52 562.473 349.52 729.14 349.52 729.14C339.303 734.817 326.863 734.72 316.74 728.91C316.74 728.91 17.1453 562.467 17.1453 562.467C6.563 556.59 0 545.437 0 533.33C0 533.33 0 200 0 200C0 188.189 6.24966 177.257 16.429 171.267C16.429 171.267 16.91 171.261 16.91 171.261L17.1453 170.861C17.1453 170.861 317.147 4.1947 317.147 4.1947ZM333.337 328.533C333.337 328.533 101.974 199.998 101.974 199.998L333.333 71.4654L564.697 200C564.697 200 333.337 328.533 333.337 328.533ZM66.6667 256.65C66.6667 256.65 66.6667 513.717 66.6667 513.717L300 643.347L300 386.28C300 386.28 66.6667 256.65 66.6667 256.65ZM366.667 386.28C366.667 386.28 366.667 643.35 366.667 643.35L600 513.72L600 256.65C600 256.65 366.667 386.28 366.667 386.28Z" fill="#FFFFFF" fill-rule="evenodd" transform="translate(66.667 33.333)" />
  </g>
</svg>