<?xml version="1.0" encoding="utf-8"?>
<svg width="800" height="800" viewBox="0 0 800 800" fill="none" xmlns="http://www.w3.org/2000/svg">
  <g>
    <path d="M116.667 33.3333C116.667 14.924 101.743 0 83.3333 0C64.9237 0 50 14.924 50 33.3333C50 33.3333 50 50 50 50C50 50 33.3333 50 33.3333 50C14.9237 50 0 64.9237 0 83.3333C0 101.743 14.9237 116.667 33.3333 116.667C33.3333 116.667 50 116.667 50 116.667C50 116.667 50 133.333 50 133.333C50 151.743 64.9237 166.667 83.3333 166.667C101.743 166.667 116.667 151.743 116.667 133.333C116.667 133.333 116.667 116.667 116.667 116.667C116.667 116.667 133.333 116.667 133.333 116.667C151.743 116.667 166.667 101.743 166.667 83.3333C166.667 64.9237 151.743 50 133.333 50C133.333 50 116.667 50 116.667 50C116.667 50 116.667 33.3333 116.667 33.3333Z" fill="#FFFFFF" transform="translate(150 250)" />
    <path d="M66.6667 33.3333C66.6667 51.743 51.7433 66.6667 33.3333 66.6667C14.9233 66.6667 0 51.743 0 33.3333C0 14.924 14.9233 0 33.3333 0C51.7433 0 66.6667 14.924 66.6667 33.3333Z" fill="#FFFFFF" transform="translate(533.333 233.333)" />
    <path d="M33.3333 66.6667C51.7433 66.6667 66.6667 51.7433 66.6667 33.3333C66.6667 14.9233 51.7433 0 33.3333 0C14.9233 0 0 14.9233 0 33.3333C0 51.7433 14.9233 66.6667 33.3333 66.6667Z" fill="#FFFFFF" transform="translate(533.333 366.667)" />
    <path d="M66.6667 33.3333C66.6667 51.7433 51.7433 66.6667 33.3333 66.6667C14.9233 66.6667 0 51.7433 0 33.3333C0 14.9237 14.9233 0 33.3333 0C51.7433 0 66.6667 14.9237 66.6667 33.3333Z" fill="#FFFFFF" transform="translate(466.667 300)" />
    <path d="M33.3334 66.6667C51.7433 66.6667 66.6667 51.7433 66.6667 33.3333C66.6667 14.9237 51.7433 0 33.3334 0C14.9233 0 0 14.9237 0 33.3333C0 51.7433 14.9233 66.6667 33.3334 66.6667Z" fill="#FFFFFF" transform="translate(600 300)" />
    <path d="M374.626 0C314.222 0 240.038 8.60567 181.886 16.9767C106.061 27.892 44.3243 83.8987 28.29 159.61C19.317 201.978 10.5237 252.073 8.50867 294.013C7.06387 324.083 3.8917 366.103 0.53083 406.41C-2.9658 448.347 11.0083 491.547 36.652 522.27C62.82 553.623 104.264 574.757 152.081 561.377C182.697 552.807 207.162 531.29 225.309 510.087C243.859 488.417 258.623 463.747 269.137 443.677C277.233 428.223 291.603 419.517 305.139 419.517C305.139 419.517 444.112 419.517 444.112 419.517C457.646 419.517 472.019 428.223 480.112 443.677C490.629 463.747 505.392 488.417 523.942 510.087C542.089 531.29 566.552 552.807 597.169 561.377C644.986 574.757 686.429 553.623 712.599 522.27C738.242 491.547 752.216 448.347 748.719 406.41C745.359 366.103 742.186 324.083 740.742 294.013C738.726 252.073 729.932 201.978 720.959 159.61C704.926 83.8987 643.189 27.892 567.362 16.9767C509.212 8.60567 435.029 0 374.626 0ZM191.385 82.963C248.874 74.6877 319.186 66.6667 374.626 66.6667C430.066 66.6667 500.376 74.6877 557.866 82.9633C606.792 90.0063 645.662 125.83 655.739 173.422C664.516 214.855 672.399 260.743 674.152 297.213C675.656 328.533 678.916 371.543 682.282 411.95C684.332 436.52 675.766 462.36 661.416 479.553C647.589 496.12 631.589 501.78 615.136 497.177C602.949 493.763 589.049 483.633 574.589 466.737C560.529 450.313 548.439 430.437 539.166 412.74C521.436 378.89 486.232 352.85 444.112 352.85C444.112 352.85 305.139 352.85 305.139 352.85C263.018 352.85 227.816 378.89 210.084 412.74C200.812 430.437 188.721 450.313 174.662 466.737C160.2 483.633 146.301 493.763 134.113 497.177C117.662 501.78 101.66 496.12 87.834 479.553C73.4843 462.36 64.9183 436.52 66.967 411.95C70.336 371.543 73.5937 328.533 75.0983 297.213C76.8507 260.743 84.7353 214.855 93.51 173.422C103.589 125.83 142.458 90.0063 191.385 82.963Z" fill="#FFFFFF" fill-rule="evenodd" transform="translate(25.374 100)" />
  </g>
</svg>