<?xml version="1.0" encoding="utf-8"?>
<svg width="100" height="729" viewBox="0 0 100 729" fill="none" xmlns="http://www.w3.org/2000/svg">
  <g>
    <path d="M0 50C0 22.3858 22.3858 0 50 0C77.6142 0 100 22.3858 100 50C100 77.6142 77.6142 100 50 100C22.3858 100 0 77.6142 0 50Z" fill="#FFFFFF" fill-rule="evenodd" />
    <path d="M0 50C0 22.3857 22.3858 0 50 0C77.6142 0 100 22.3857 100 50C100 77.6143 77.6142 100 50 100C22.3858 100 0 77.6143 0 50Z" fill="#FFFFFF" fill-rule="evenodd" transform="translate(0 629)" />
    <line x1="1" y1="0" x2="1" y2="620" fill="none" stroke-width="25" stroke="#FFFFFF" stroke-linecap="square" transform="translate(49 50)" />
  </g>
</svg>